BoPoMoFont_Bold.ufo
<glyph name="A" format="2">
  <advance width="775"/>
  <unicode hex="0041"/>
  <outline>
    <contour>
      <point x="492" y="651" type="line"/>
      <point x="285" y="651" type="line"/>
      <point x="38" y="0" type="line"/>
      <point x="241" y="0" type="line"/>
      <point x="283" y="124" type="line"/>
      <point x="490" y="124" type="line"/>
      <point x="533" y="0" type="line"/>
      <point x="738" y="0" type="line"/>
    </contour>
    <contour>
      <point x="386" y="436" type="line"/>
      <point x="435" y="281" type="line"/>
      <point x="338" y="281" type="line"/>
    </contour>
  </outline>
</glyph>
<glyph name="B" format="2">
  <advance width="683"/>
  <unicode hex="0042"/>
  <outline>
    <contour>
      <point x="76" y="649" type="line"/>
      <point x="76" y="0" type="line"/>
      <point x="384" y="0" type="line" smooth="yes"/>
      <point x="556" y="0"/>
      <point x="632" y="71"/>
      <point x="632" y="187" type="curve" smooth="yes"/>
      <point x="632" y="250"/>
      <point x="590" y="305"/>
      <point x="532" y="326" type="curve"/>
      <point x="584" y="351"/>
      <point x="619" y="400"/>
      <point x="619" y="463" type="curve" smooth="yes"/>
      <point x="619" y="577"/>
      <point x="542" y="649"/>
      <point x="368" y="649" type="curve" smooth="yes"/>
    </contour>
    <contour>
      <point x="347" y="245" type="line" smooth="yes"/>
      <point x="397" y="245"/>
      <point x="424" y="235"/>
      <point x="424" y="199" type="curve" smooth="yes"/>
      <point x="424" y="161"/>
      <point x="397" y="151"/>
      <point x="347" y="152" type="curve" smooth="yes"/>
      <point x="262" y="153" type="line"/>
      <point x="262" y="245" type="line"/>
    </contour>
    <contour>
      <point x="337" y="496" type="line" smooth="yes"/>
      <point x="384" y="496"/>
      <point x="409" y="487"/>
      <point x="409" y="452" type="curve" smooth="yes"/>
      <point x="409" y="415"/>
      <point x="384" y="406"/>
      <point x="336" y="406" type="curve" smooth="yes"/>
      <point x="262" y="406" type="line"/>
      <point x="262" y="496" type="line"/>
    </contour>
  </outline>
</glyph>
<glyph name="C" format="2">
  <advance width="745"/>
  <unicode hex="0043"/>
  <outline>
    <contour>
      <point x="398" y="648" type="curve" smooth="yes"/>
      <point x="197" y="648"/>
      <point x="55" y="509"/>
      <point x="55" y="312" type="curve" smooth="yes"/>
      <point x="55" y="113"/>
      <point x="197" y="-26"/>
      <point x="398" y="-26" type="curve" smooth="yes"/>
      <point x="527" y="-26"/>
      <point x="627" y="32"/>
      <point x="688" y="124" type="curve"/>
      <point x="533" y="233" type="line"/>
      <point x="502" y="184"/>
      <point x="457" y="160"/>
      <point x="402" y="160" type="curve" smooth="yes"/>
      <point x="330" y="160"/>
      <point x="262" y="210"/>
      <point x="262" y="311" type="curve" smooth="yes"/>
      <point x="262" y="399"/>
      <point x="322" y="461"/>
      <point x="402" y="461" type="curve" smooth="yes"/>
      <point x="457" y="461"/>
      <point x="501" y="436"/>
      <point x="530" y="387" type="curve"/>
      <point x="695" y="484" type="line"/>
      <point x="639" y="588"/>
      <point x="525" y="648"/>
    </contour>
  </outline>
</glyph>
<glyph name="D" format="2">
  <advance width="758"/>
  <unicode hex="0044"/>
  <outline>
    <contour>
      <point x="366" y="651" type="curve" smooth="yes"/>
      <point x="79" y="651" type="line"/>
      <point x="79" y="0" type="line"/>
      <point x="366" y="0" type="line" smooth="yes"/>
      <point x="570" y="0"/>
      <point x="704" y="129"/>
      <point x="704" y="326" type="curve" smooth="yes"/>
      <point x="704" y="522"/>
      <point x="570" y="651"/>
    </contour>
    <contour>
      <point x="344" y="470" type="line" smooth="yes"/>
      <point x="451" y="470"/>
      <point x="502" y="421"/>
      <point x="502" y="326" type="curve" smooth="yes"/>
      <point x="502" y="231"/>
      <point x="451" y="180"/>
      <point x="344" y="180" type="curve" smooth="yes"/>
      <point x="265" y="180" type="line"/>
      <point x="265" y="470" type="line"/>
    </contour>
  </outline>
</glyph>
<glyph name="E" format="2">
  <advance width="635"/>
  <unicode hex="0045"/>
  <outline>
    <contour>
      <point x="572" y="156" type="line"/>
      <point x="259" y="156" type="line"/>
      <point x="259" y="250" type="line"/>
      <point x="548" y="250" type="line"/>
      <point x="548" y="407" type="line"/>
      <point x="259" y="407" type="line"/>
      <point x="259" y="492" type="line"/>
      <point x="572" y="492" type="line"/>
      <point x="572" y="650" type="line"/>
      <point x="73" y="650" type="line"/>
      <point x="73" y="0" type="line"/>
      <point x="572" y="0" type="line"/>
    </contour>
  </outline>
</glyph>
<glyph name="F" format="2">
  <advance width="622"/>
  <unicode hex="0046"/>
  <outline>
    <contour>
      <point x="546" y="388" type="line"/>
      <point x="256" y="388" type="line"/>
      <point x="256" y="486" type="line"/>
      <point x="569" y="486" type="line"/>
      <point x="569" y="641" type="line"/>
      <point x="73" y="641" type="line"/>
      <point x="73" y="0" type="line"/>
      <point x="256" y="0" type="line"/>
      <point x="256" y="233" type="line"/>
      <point x="546" y="233" type="line"/>
    </contour>
  </outline>
</glyph>
<glyph name="G" format="2">
  <advance width="824"/>
  <unicode hex="0047"/>
  <outline>
    <contour>
      <point x="621" y="76" type="line"/>
      <point x="621" y="75" type="line" smooth="yes"/>
      <point x="621" y="28"/>
      <point x="705" y="-1"/>
      <point x="749" y="-1" type="curve" smooth="yes"/>
      <point x="761" y="-1" type="line"/>
      <point x="761" y="140" type="line"/>
      <point x="758" y="140" type="line" smooth="yes"/>
      <point x="728" y="140"/>
      <point x="710" y="160"/>
      <point x="710" y="188" type="curve" smooth="yes"/>
      <point x="710" y="296" type="line" smooth="yes"/>
      <point x="710" y="351"/>
      <point x="711" y="368" type="qcurve"/>
      <point x="617" y="368" type="line"/>
    </contour>
    <contour>
      <point x="621" y="76" type="line"/>
      <point x="621" y="76" type="line"/>
    </contour>
    <contour>
      <point x="401" y="653" type="curve" smooth="yes"/>
      <point x="200" y="653"/>
      <point x="58" y="516"/>
      <point x="58" y="321" type="curve" smooth="yes"/>
      <point x="58" y="127"/>
      <point x="200" y="-10"/>
      <point x="401" y="-10" type="curve" smooth="yes"/>
      <point x="552" y="-10"/>
      <point x="710" y="97"/>
      <point x="710" y="310" type="curve" smooth="yes"/>
      <point x="710" y="329"/>
      <point x="709" y="348"/>
      <point x="706" y="368" type="curve"/>
      <point x="388" y="368" type="line"/>
      <point x="388" y="241" type="line"/>
      <point x="538" y="241" type="line"/>
      <point x="520" y="178"/>
      <point x="474" y="146"/>
      <point x="394" y="146" type="curve" smooth="yes"/>
      <point x="311" y="146"/>
      <point x="236" y="205"/>
      <point x="236" y="321" type="curve" smooth="yes"/>
      <point x="236" y="422"/>
      <point x="300" y="491"/>
      <point x="391" y="491" type="curve" smooth="yes"/>
      <point x="445" y="491"/>
      <point x="484" y="472"/>
      <point x="512" y="444" type="curve"/>
      <point x="635" y="565" type="line"/>
      <point x="581" y="620"/>
      <point x="502" y="653"/>
    </contour>
  </outline>
</glyph>
<glyph name="H" format="2">
  <advance width="739"/>
  <unicode hex="0048"/>
  <outline>
    <contour>
      <point x="251" y="641" type="line"/>
      <point x="77" y="641" type="line"/>
      <point x="77" y="0" type="line"/>
      <point x="251" y="0" type="line"/>
      <point x="251" y="244" type="line"/>
      <point x="488" y="244" type="line"/>
      <point x="488" y="0" type="line"/>
      <point x="662" y="0" type="line"/>
      <point x="662" y="641" type="line"/>
      <point x="488" y="641" type="line"/>
      <point x="488" y="404" type="line"/>
      <point x="251" y="404" type="line"/>
    </contour>
  </outline>
</glyph>
<glyph name="J" format="2">
  <advance width="545"/>
  <unicode hex="004A"/>
  <outline>
    <contour>
      <point x="247" y="-15" type="qcurve" smooth="yes"/>
      <point x="338" y="-15"/>
      <point x="481" y="108"/>
      <point x="479" y="196" type="qcurve" smooth="yes"/>
      <point x="479" y="647" type="line"/>
      <point x="316" y="647" type="line"/>
      <point x="316" y="253" type="line" smooth="yes"/>
      <point x="316" y="217"/>
      <point x="279" y="177"/>
      <point x="247" y="177" type="qcurve" smooth="yes"/>
      <point x="214" y="177"/>
      <point x="175" y="218"/>
      <point x="175" y="258" type="qcurve" smooth="yes"/>
      <point x="175" y="256" type="line"/>
      <point x="21" y="254" type="line"/>
      <point x="21" y="195" type="line" smooth="yes"/>
      <point x="21" y="99"/>
      <point x="152" y="-15"/>
    </contour>
  </outline>
</glyph>
<glyph name="K" format="2">
  <advance width="715"/>
  <unicode hex="004B"/>
  <outline>
    <contour>
      <point x="483" y="0" type="line"/>
      <point x="696" y="0" type="line"/>
      <point x="444" y="328" type="line"/>
      <point x="676" y="641" type="line"/>
      <point x="465" y="641" type="line"/>
      <point x="303" y="400" type="line"/>
      <point x="253" y="400" type="line"/>
      <point x="253" y="641" type="line"/>
      <point x="79" y="641" type="line"/>
      <point x="79" y="0" type="line"/>
      <point x="253" y="0" type="line"/>
      <point x="253" y="245" type="line"/>
      <point x="302" y="245" type="line"/>
    </contour>
  </outline>
</glyph>
<glyph name="L" format="2">
  <advance width="587"/>
  <unicode hex="004C"/>
  <outline>
    <contour>
      <point x="555" y="160" type="line"/>
      <point x="246" y="160" type="line"/>
      <point x="246" y="641" type="line"/>
      <point x="72" y="641" type="line"/>
      <point x="72" y="0" type="line"/>
      <point x="555" y="0" type="line"/>
    </contour>
  </outline>
</glyph>
<glyph name="M" format="2">
  <advance width="908"/>
  <unicode hex="004D"/>
  <outline>
    <contour>
      <point x="824" y="641" type="line"/>
      <point x="582" y="641" type="line"/>
      <point x="454" y="255" type="line"/>
      <point x="326" y="641" type="line"/>
      <point x="84" y="641" type="line"/>
      <point x="84" y="0" type="line"/>
      <point x="258" y="0" type="line"/>
      <point x="258" y="401" type="line"/>
      <point x="362" y="59" type="line"/>
      <point x="546" y="59" type="line"/>
      <point x="650" y="401" type="line"/>
      <point x="650" y="0" type="line"/>
      <point x="824" y="0" type="line"/>
    </contour>
  </outline>
</glyph>
<glyph name="N" format="2">
  <advance width="764"/>
  <unicode hex="004E"/>
  <outline>
    <contour>
      <point x="686" y="641" type="line"/>
      <point x="512" y="641" type="line"/>
      <point x="512" y="281" type="line"/>
      <point x="247" y="641" type="line"/>
      <point x="78" y="641" type="line"/>
      <point x="78" y="0" type="line"/>
      <point x="252" y="0" type="line"/>
      <point x="252" y="361" type="line"/>
      <point x="517" y="0" type="line"/>
      <point x="686" y="0" type="line"/>
    </contour>
  </outline>
</glyph>
<glyph name="O" format="2">
  <advance width="790"/>
  <unicode hex="004F"/>
  <outline>
    <contour>
      <point x="395" y="638" type="curve" smooth="yes"/>
      <point x="197" y="638"/>
      <point x="56" y="497"/>
      <point x="56" y="306" type="curve" smooth="yes"/>
      <point x="56" y="115"/>
      <point x="197" y="-26"/>
      <point x="395" y="-26" type="curve" smooth="yes"/>
      <point x="594" y="-26"/>
      <point x="734" y="115"/>
      <point x="734" y="306" type="curve" smooth="yes"/>
      <point x="734" y="497"/>
      <point x="594" y="638"/>
    </contour>
    <contour>
      <point x="395" y="472" type="curve" smooth="yes"/>
      <point x="488" y="472"/>
      <point x="553" y="404"/>
      <point x="553" y="306" type="curve" smooth="yes"/>
      <point x="553" y="208"/>
      <point x="488" y="141"/>
      <point x="395" y="141" type="curve" smooth="yes"/>
      <point x="302" y="141"/>
      <point x="238" y="208"/>
      <point x="238" y="306" type="curve" smooth="yes"/>
      <point x="238" y="404"/>
      <point x="302" y="472"/>
    </contour>
  </outline>
</glyph>
<glyph name="P" format="2">
  <advance width="654"/>
  <unicode hex="0050"/>
  <outline>
    <contour>
      <point x="363" y="202" type="line" smooth="yes"/>
      <point x="523" y="202"/>
      <point x="609" y="290"/>
      <point x="609" y="419" type="curve" smooth="yes"/>
      <point x="609" y="551"/>
      <point x="523" y="641"/>
      <point x="360" y="641" type="curve" smooth="yes"/>
      <point x="75" y="641" type="line"/>
      <point x="75" y="0" type="line"/>
      <point x="249" y="0" type="line"/>
      <point x="249" y="202" type="line"/>
    </contour>
    <contour>
      <point x="358" y="485" type="line" smooth="yes"/>
      <point x="401" y="485"/>
      <point x="434" y="461"/>
      <point x="434" y="419" type="curve" smooth="yes"/>
      <point x="434" y="378"/>
      <point x="401" y="354"/>
      <point x="358" y="354" type="curve" smooth="yes"/>
      <point x="249" y="354" type="line"/>
      <point x="249" y="485" type="line"/>
    </contour>
  </outline>
</glyph>
<glyph name="Q" format="2">
  <advance width="778"/>
  <unicode hex="0051"/>
  <anchor x="1138" y="-17" name="Anchor-2"/>
  <outline>
    <contour>
      <point x="391" y="139" type="curve" smooth="yes"/>
      <point x="302" y="139"/>
      <point x="235" y="208"/>
      <point x="235" y="298" type="curve" smooth="yes"/>
      <point x="235" y="390"/>
      <point x="302" y="458"/>
      <point x="391" y="458" type="curve" smooth="yes"/>
      <point x="478" y="458"/>
      <point x="544" y="390"/>
      <point x="544" y="298" type="curve" smooth="yes"/>
      <point x="544" y="208"/>
      <point x="478" y="139"/>
    </contour>
    <contour>
      <point x="468" y="-31" type="line"/>
      <point x="468" y="-67"/>
      <point x="475" y="-78"/>
      <point x="512" y="-78" type="qcurve"/>
      <point x="592" y="-78" type="line"/>
      <point x="592" y="-204" type="line"/>
      <point x="506" y="-204" type="line"/>
      <point x="417" y="-204"/>
      <point x="311" y="-110"/>
      <point x="311" y="-31" type="qcurve"/>
    </contour>
    <contour>
      <point x="468" y="-31" type="line"/>
      <point x="636" y="0"/>
      <point x="727" y="146"/>
      <point x="727" y="302" type="curve" smooth="yes"/>
      <point x="727" y="478"/>
      <point x="598" y="641"/>
      <point x="390" y="641" type="curve" smooth="yes"/>
      <point x="180" y="641"/>
      <point x="51" y="478"/>
      <point x="51" y="302" type="curve" smooth="yes"/>
      <point x="51" y="146"/>
      <point x="144" y="0"/>
      <point x="311" y="-31" type="curve"/>
    </contour>
  </outline>
</glyph>
<glyph name="R" format="2">
  <advance width="668"/>
  <unicode hex="0052"/>
  <outline>
    <contour>
      <point x="361" y="641" type="curve" smooth="yes"/>
      <point x="75" y="641" type="line"/>
      <point x="75" y="0" type="line"/>
      <point x="249" y="0" type="line"/>
      <point x="249" y="228" type="line"/>
      <point x="258" y="228" type="line"/>
      <point x="413" y="0" type="line"/>
      <point x="618" y="0" type="line"/>
      <point x="443" y="235" type="line"/>
      <point x="552" y="258"/>
      <point x="609" y="328"/>
      <point x="609" y="427" type="curve" smooth="yes"/>
      <point x="609" y="556"/>
      <point x="524" y="641"/>
    </contour>
    <contour>
      <point x="359" y="485" type="line" smooth="yes"/>
      <point x="402" y="485"/>
      <point x="433" y="467"/>
      <point x="433" y="427" type="curve" smooth="yes"/>
      <point x="433" y="389"/>
      <point x="402" y="371"/>
      <point x="359" y="371" type="curve" smooth="yes"/>
      <point x="249" y="371" type="line"/>
      <point x="249" y="485" type="line"/>
    </contour>
  </outline>
</glyph>
<glyph name="S" format="2">
  <advance width="630"/>
  <unicode hex="0053"/>
  <outline>
    <contour>
      <point x="69" y="0" type="line"/>
      <point x="387" y="0" type="line" smooth="yes"/>
      <point x="497" y="0"/>
      <point x="572" y="90"/>
      <point x="572" y="186" type="curve" smooth="yes"/>
      <point x="572" y="293"/>
      <point x="497" y="393"/>
      <point x="387" y="393" type="curve" smooth="yes"/>
      <point x="310" y="393" type="line" smooth="yes"/>
      <point x="254" y="393"/>
      <point x="216" y="408"/>
      <point x="216" y="463" type="curve" smooth="yes"/>
      <point x="216" y="519"/>
      <point x="254" y="510"/>
      <point x="310" y="510" type="curve" smooth="yes"/>
      <point x="517" y="510" type="line"/>
      <point x="517" y="649" type="line"/>
      <point x="244" y="649" type="line" smooth="yes"/>
      <point x="133" y="649"/>
      <point x="58" y="561"/>
      <point x="58" y="463" type="curve" smooth="yes"/>
      <point x="58" y="356"/>
      <point x="133" y="255"/>
      <point x="244" y="255" type="curve" smooth="yes"/>
      <point x="321" y="255" type="line" smooth="yes"/>
      <point x="376" y="255"/>
      <point x="414" y="241"/>
      <point x="414" y="186" type="curve" smooth="yes"/>
      <point x="414" y="130"/>
      <point x="376" y="138"/>
      <point x="321" y="138" type="curve" smooth="yes"/>
      <point x="69" y="138" type="line"/>
    </contour>
  </outline>
</glyph>
<glyph name="T" format="2">
  <advance width="628"/>
  <unicode hex="0054"/>
  <outline>
    <contour>
      <point x="583" y="641" type="line"/>
      <point x="45" y="641" type="line"/>
      <point x="45" y="480" type="line"/>
      <point x="227" y="480" type="line"/>
      <point x="227" y="0" type="line"/>
      <point x="401" y="0" type="line"/>
      <point x="401" y="480" type="line"/>
      <point x="583" y="480" type="line"/>
    </contour>
  </outline>
</glyph>
<glyph name="U" format="2">
  <advance width="636"/>
  <unicode hex="0055"/>
  <outline>
    <contour>
      <point x="602" y="639" type="line"/>
      <point x="428" y="639" type="line"/>
      <point x="428" y="265" type="line" smooth="yes"/>
      <point x="428" y="192"/>
      <point x="386" y="154"/>
      <point x="318" y="154" type="curve" smooth="yes"/>
      <point x="251" y="154"/>
      <point x="209" y="192"/>
      <point x="209" y="265" type="curve" smooth="yes"/>
      <point x="209" y="639" type="line"/>
      <point x="34" y="639" type="line"/>
      <point x="34" y="261" type="line" smooth="yes"/>
      <point x="34" y="86"/>
      <point x="134" y="-13"/>
      <point x="318" y="-13" type="curve" smooth="yes"/>
      <point x="502" y="-13"/>
      <point x="602" y="86"/>
      <point x="602" y="261" type="curve" smooth="yes"/>
    </contour>
  </outline>
</glyph>
<glyph name="V" format="2">
  <advance width="744"/>
  <unicode hex="0056"/>
  <outline>
    <contour>
      <point x="708" y="641" type="line"/>
      <point x="527" y="641" type="line"/>
      <point x="374" y="182" type="line"/>
      <point x="221" y="641" type="line"/>
      <point x="36" y="641" type="line"/>
      <point x="270" y="0" type="line"/>
      <point x="474" y="0" type="line"/>
    </contour>
  </outline>
</glyph>
<glyph name="W" format="2">
  <advance width="1098"/>
  <unicode hex="0057"/>
  <outline>
    <contour>
      <point x="1044" y="641" type="line"/>
      <point x="867" y="641" type="line"/>
      <point x="759" y="210" type="line"/>
      <point x="643" y="641" type="line"/>
      <point x="458" y="641" type="line"/>
      <point x="342" y="211" type="line"/>
      <point x="233" y="641" type="line"/>
      <point x="54" y="641" type="line"/>
      <point x="237" y="0" type="line"/>
      <point x="442" y="0" type="line"/>
      <point x="549" y="375" type="line"/>
      <point x="656" y="0" type="line"/>
      <point x="861" y="0" type="line"/>
    </contour>
  </outline>
</glyph>
<glyph name="X" format="2">
  <advance width="683"/>
  <unicode hex="0058"/>
  <outline>
    <contour>
      <point x="649" y="641" type="line"/>
      <point x="454" y="641" type="line"/>
      <point x="342" y="451" type="line"/>
      <point x="230" y="641" type="line"/>
      <point x="34" y="641" type="line"/>
      <point x="236" y="322" type="line"/>
      <point x="34" y="0" type="line"/>
      <point x="229" y="0" type="line"/>
      <point x="340" y="190" type="line"/>
      <point x="453" y="0" type="line"/>
      <point x="649" y="0" type="line"/>
      <point x="446" y="323" type="line"/>
    </contour>
  </outline>
</glyph>
<glyph name="Y" format="2">
  <advance width="716"/>
  <unicode hex="0059"/>
  <outline>
    <contour>
      <point x="684" y="641" type="line"/>
      <point x="491" y="641" type="line"/>
      <point x="362" y="399" type="line"/>
      <point x="232" y="641" type="line"/>
      <point x="32" y="641" type="line"/>
      <point x="274" y="241" type="line"/>
      <point x="274" y="0" type="line"/>
      <point x="448" y="0" type="line"/>
      <point x="448" y="242" type="line"/>
    </contour>
  </outline>
</glyph>
<glyph name="Z" format="2">
  <advance width="640"/>
  <unicode hex="005A"/>
  <outline>
    <contour>
      <point x="585" y="641" type="line"/>
      <point x="55" y="641" type="line"/>
      <point x="55" y="486" type="line"/>
      <point x="355" y="486" type="line"/>
      <point x="55" y="136" type="line"/>
      <point x="55" y="0" type="line"/>
      <point x="585" y="0" type="line"/>
      <point x="585" y="155" type="line"/>
      <point x="286" y="155" type="line"/>
      <point x="585" y="504" type="line"/>
    </contour>
  </outline>
</glyph>
<glyph name="a" format="2">
  <advance width="599"/>
  <unicode hex="0061"/>
  <outline>
    <contour>
      <point x="269" y="-10" type="curve" smooth="yes"/>
      <point x="327" y="-10"/>
      <point x="379" y="17"/>
      <point x="421" y="55" type="curve"/>
      <point x="447" y="23"/>
      <point x="487" y="0"/>
      <point x="535" y="0" type="curve" smooth="yes"/>
      <point x="549" y="0" type="line"/>
      <point x="549" y="134" type="line"/>
      <point x="545" y="134" type="line" smooth="yes"/>
      <point x="532" y="134"/>
      <point x="523" y="141"/>
      <point x="523" y="156" type="curve" smooth="yes"/>
      <point x="523" y="416" type="line"/>
      <point x="383" y="416" type="line"/>
      <point x="383" y="380" type="line"/>
      <point x="357" y="406"/>
      <point x="315" y="426"/>
      <point x="269" y="426" type="curve" smooth="yes"/>
      <point x="149" y="426"/>
      <point x="45" y="328"/>
      <point x="45" y="208" type="curve" smooth="yes"/>
      <point x="45" y="78"/>
      <point x="139" y="-10"/>
    </contour>
    <contour>
      <point x="285" y="136" type="curve" smooth="yes"/>
      <point x="244" y="136"/>
      <point x="211" y="171"/>
      <point x="211" y="213" type="curve" smooth="yes"/>
      <point x="211" y="258"/>
      <point x="244" y="289"/>
      <point x="285" y="289" type="curve" smooth="yes"/>
      <point x="333" y="289"/>
      <point x="362" y="254"/>
      <point x="362" y="213" type="curve" smooth="yes"/>
      <point x="362" y="171"/>
      <point x="331" y="136"/>
    </contour>
  </outline>
</glyph>
<glyph name="c" format="2">
  <advance width="464"/>
  <unicode hex="0063"/>
  <outline>
    <contour>
      <point x="268" y="-10" type="curve" smooth="yes"/>
      <point x="326" y="-10"/>
      <point x="382" y="14"/>
      <point x="422" y="56" type="curve"/>
      <point x="329" y="156" type="line"/>
      <point x="316" y="142"/>
      <point x="296" y="133"/>
      <point x="277" y="133" type="curve" smooth="yes"/>
      <point x="234" y="133"/>
      <point x="203" y="166"/>
      <point x="203" y="208" type="curve" smooth="yes"/>
      <point x="203" y="252"/>
      <point x="234" y="283"/>
      <point x="277" y="283" type="curve" smooth="yes"/>
      <point x="297" y="283"/>
      <point x="316" y="275"/>
      <point x="330" y="262" type="curve"/>
      <point x="424" y="364" type="line"/>
      <point x="380" y="408"/>
      <point x="330" y="426"/>
      <point x="268" y="426" type="curve" smooth="yes"/>
      <point x="148" y="426"/>
      <point x="44" y="328"/>
      <point x="44" y="208" type="curve" smooth="yes"/>
      <point x="44" y="78"/>
      <point x="138" y="-10"/>
    </contour>
  </outline>
</glyph>
<glyph name="d" format="2">
  <advance width="556"/>
  <unicode hex="0064"/>
  <outline>
    <contour>
      <point x="262" y="-10" type="curve" smooth="yes"/>
      <point x="392" y="-10"/>
      <point x="486" y="88"/>
      <point x="486" y="218" type="curve" smooth="yes"/>
      <point x="486" y="650" type="line"/>
      <point x="344" y="650" type="line"/>
      <point x="344" y="400" type="line"/>
      <point x="322" y="417"/>
      <point x="297" y="426"/>
      <point x="252" y="426" type="curve" smooth="yes"/>
      <point x="126" y="426"/>
      <point x="38" y="338"/>
      <point x="38" y="208" type="curve" smooth="yes"/>
      <point x="38" y="88"/>
      <point x="142" y="-10"/>
    </contour>
    <contour>
      <point x="265" y="136" type="curve" smooth="yes"/>
      <point x="219" y="136"/>
      <point x="188" y="171"/>
      <point x="188" y="213" type="curve" smooth="yes"/>
      <point x="188" y="254"/>
      <point x="217" y="289"/>
      <point x="265" y="289" type="curve" smooth="yes"/>
      <point x="306" y="289"/>
      <point x="339" y="258"/>
      <point x="339" y="213" type="curve" smooth="yes"/>
      <point x="339" y="171"/>
      <point x="306" y="136"/>
    </contour>
    <contour>
      <point x="384" y="55" type="move"/>
      <point x="410" y="23"/>
      <point x="450" y="0"/>
      <point x="498" y="0" type="curve" smooth="yes"/>
      <point x="512" y="0" type="line"/>
      <point x="512" y="134" type="line"/>
      <point x="508" y="134" type="line" smooth="yes"/>
      <point x="495" y="134"/>
      <point x="486" y="141"/>
      <point x="486" y="156" type="curve" smooth="yes"/>
      <point x="486" y="416" type="line"/>
      <point x="346" y="416" type="line"/>
      <point x="346" y="380" type="line"/>
    </contour>
  </outline>
</glyph>
<glyph name="e" format="2">
  <advance width="508"/>
  <unicode hex="0065"/>
  <outline>
    <contour>
      <point x="263" y="-9" type="curve" smooth="yes"/>
      <point x="349" y="-9"/>
      <point x="408" y="27"/>
      <point x="451" y="73" type="curve"/>
      <point x="326" y="151" type="line"/>
      <point x="306" y="130"/>
      <point x="289" y="119"/>
      <point x="256" y="119" type="curve" smooth="yes"/>
      <point x="220" y="119"/>
      <point x="202" y="140"/>
      <point x="194" y="173" type="curve"/>
      <point x="463" y="173" type="line"/>
      <point x="464" y="188"/>
      <point x="464" y="189"/>
      <point x="464" y="216" type="curve" smooth="yes"/>
      <point x="464" y="330"/>
      <point x="381" y="425"/>
      <point x="256" y="425" type="curve" smooth="yes"/>
      <point x="130" y="425"/>
      <point x="44" y="332"/>
      <point x="44" y="209" type="curve" smooth="yes"/>
      <point x="44" y="73"/>
      <point x="137" y="-9"/>
    </contour>
    <contour>
      <point x="256" y="320" type="curve" smooth="yes"/>
      <point x="295" y="320"/>
      <point x="307" y="296"/>
      <point x="315" y="266" type="curve"/>
      <point x="194" y="266" type="line"/>
      <point x="204" y="297"/>
      <point x="220" y="320"/>
    </contour>
  </outline>
</glyph>
<glyph name="f" format="2">
  <advance width="263"/>
  <unicode hex="0066"/>
  <outline>
    <contour>
      <point x="53" y="0" type="line"/>
      <point x="195" y="0" type="line"/>
      <point x="195" y="282" type="line"/>
      <point x="261" y="282" type="line"/>
      <point x="261" y="416" type="line"/>
      <point x="195" y="416" type="line"/>
      <point x="195" y="537" type="line" smooth="yes"/>
      <point x="195" y="578"/>
      <point x="219" y="589"/>
      <point x="267" y="589" type="curve" smooth="yes"/>
      <point x="276" y="589" type="line"/>
      <point x="276" y="728" type="line"/>
      <point x="239" y="728" type="line" smooth="yes"/>
      <point x="148" y="728"/>
      <point x="53" y="663"/>
      <point x="53" y="572" type="curve" smooth="yes"/>
      <point x="53" y="416" type="line"/>
      <point x="-13" y="416" type="line"/>
      <point x="-13" y="282" type="line"/>
      <point x="53" y="282" type="line"/>
    </contour>
  </outline>
</glyph>
<glyph name="g" format="2">
  <advance width="556"/>
  <unicode hex="0067"/>
  <outline>
    <contour>
      <point x="508" y="25" type="line"/>
      <point x="508" y="221" type="line" smooth="yes"/>
      <point x="508" y="251"/>
      <point x="508" y="273"/>
      <point x="540" y="273" type="curve" smooth="yes"/>
      <point x="544" y="273" type="line"/>
      <point x="544" y="417" type="line"/>
      <point x="530" y="417" type="line" smooth="yes"/>
      <point x="484" y="417"/>
      <point x="445" y="390"/>
      <point x="419" y="361" type="curve"/>
      <point x="380" y="396"/>
      <point x="326" y="426"/>
      <point x="264" y="426" type="curve" smooth="yes"/>
      <point x="144" y="426"/>
      <point x="40" y="328"/>
      <point x="40" y="208" type="curve" smooth="yes"/>
      <point x="40" y="78"/>
      <point x="128" y="-10"/>
      <point x="254" y="-10" type="curve" smooth="yes"/>
      <point x="306" y="-10"/>
      <point x="344" y="-2"/>
      <point x="368" y="26" type="curve"/>
      <point x="368" y="15" type="line"/>
    </contour>
    <contour>
      <point x="508" y="25" type="line"/>
      <point x="508" y="-34" type="line"/>
      <point x="508" y="-113"/>
      <point x="396" y="-210"/>
      <point x="311" y="-210" type="qcurve"/>
      <point x="95" y="-210" type="line"/>
      <point x="95" y="-72" type="line"/>
      <point x="294" y="-72" type="line"/>
      <point x="331" y="-72"/>
      <point x="367" y="-46"/>
      <point x="368" y="-32" type="qcurve"/>
      <point x="368" y="15" type="line"/>
    </contour>
    <contour>
      <point x="275" y="126" type="curve" smooth="yes"/>
      <point x="234" y="126"/>
      <point x="201" y="161"/>
      <point x="201" y="203" type="curve" smooth="yes"/>
      <point x="201" y="248"/>
      <point x="234" y="279"/>
      <point x="275" y="279" type="curve" smooth="yes"/>
      <point x="323" y="279"/>
      <point x="352" y="244"/>
      <point x="352" y="203" type="curve" smooth="yes"/>
      <point x="352" y="161"/>
      <point x="321" y="126"/>
    </contour>
  </outline>
</glyph>
<glyph name="h" format="2">
  <advance width="584"/>
  <unicode hex="0068"/>
  <outline>
    <contour>
      <point x="62" y="0" type="line"/>
      <point x="228" y="0" type="line"/>
      <point x="228" y="156" type="line" smooth="yes"/>
      <point x="228" y="202"/>
      <point x="251" y="235"/>
      <point x="295" y="235" type="curve" smooth="yes"/>
      <point x="342" y="235"/>
      <point x="364" y="202"/>
      <point x="364" y="156" type="curve" smooth="yes"/>
      <point x="364" y="0" type="line"/>
      <point x="520" y="0" type="line"/>
      <point x="520" y="208" type="line" smooth="yes"/>
      <point x="520" y="338"/>
      <point x="432" y="426"/>
      <point x="306" y="426" type="curve" smooth="yes"/>
      <point x="254" y="426"/>
      <point x="233" y="418"/>
      <point x="204" y="400" type="curve"/>
      <point x="204" y="728" type="line"/>
      <point x="62" y="728" type="line"/>
    </contour>
  </outline>
</glyph>
<glyph name="i" format="2">
  <advance width="254"/>
  <unicode hex="0069"/>
  <outline>
    <contour>
      <point x="126" y="500" type="curve" smooth="yes"/>
      <point x="174" y="500"/>
      <point x="214" y="542"/>
      <point x="214" y="590" type="curve" smooth="yes"/>
      <point x="214" y="638"/>
      <point x="174" y="677"/>
      <point x="126" y="677" type="curve" smooth="yes"/>
      <point x="79" y="677"/>
      <point x="37" y="638"/>
      <point x="37" y="590" type="curve" smooth="yes"/>
      <point x="37" y="542"/>
      <point x="79" y="500"/>
    </contour>
    <contour>
      <point x="50" y="0" type="line"/>
      <point x="202" y="0" type="line"/>
      <point x="202" y="416" type="line"/>
      <point x="50" y="416" type="line"/>
    </contour>
  </outline>
</glyph>
<glyph name="l" format="2">
  <advance width="248"/>
  <unicode hex="006C"/>
  <outline>
    <contour>
      <point x="224" y="0" type="curve" smooth="yes"/>
      <point x="262" y="0" type="line"/>
      <point x="262" y="144" type="line"/>
      <point x="232" y="144" type="line" smooth="yes"/>
      <point x="210" y="144"/>
      <point x="190" y="164"/>
      <point x="190" y="186" type="curve" smooth="yes"/>
      <point x="190" y="728" type="line"/>
      <point x="38" y="728" type="line"/>
      <point x="38" y="156" type="line" smooth="yes"/>
      <point x="38" y="66"/>
      <point x="132" y="0"/>
    </contour>
  </outline>
</glyph>
<glyph name="m" format="2">
  <advance width="866"/>
  <unicode hex="006D"/>
  <outline>
    <contour>
      <point x="116" y="0" type="line"/>
      <point x="266" y="0" type="line"/>
      <point x="266" y="153" type="line" smooth="yes"/>
      <point x="266" y="198"/>
      <point x="278" y="233"/>
      <point x="322" y="233" type="curve" smooth="yes"/>
      <point x="368" y="233"/>
      <point x="376" y="198"/>
      <point x="376" y="153" type="curve" smooth="yes"/>
      <point x="376" y="0" type="line"/>
      <point x="534" y="0" type="line"/>
      <point x="534" y="153" type="line" smooth="yes"/>
      <point x="534" y="201"/>
      <point x="543" y="233"/>
      <point x="591" y="233" type="curve" smooth="yes"/>
      <point x="638" y="233"/>
      <point x="641" y="201"/>
      <point x="641" y="153" type="curve" smooth="yes"/>
      <point x="641" y="0" type="line"/>
      <point x="800" y="0" type="line"/>
      <point x="800" y="208" type="line" smooth="yes"/>
      <point x="800" y="338"/>
      <point x="738" y="426"/>
      <point x="608" y="426" type="curve" smooth="yes"/>
      <point x="546" y="426"/>
      <point x="504" y="400"/>
      <point x="462" y="356" type="curve"/>
      <point x="422" y="400"/>
      <point x="384" y="426"/>
      <point x="312" y="426" type="curve" smooth="yes"/>
      <point x="260" y="426"/>
      <point x="215" y="403"/>
      <point x="181" y="370" type="curve"/>
      <point x="155" y="397"/>
      <point x="118" y="417"/>
      <point x="74" y="417" type="curve" smooth="yes"/>
      <point x="60" y="417" type="line"/>
      <point x="60" y="253" type="line"/>
      <point x="64" y="253" type="line" smooth="yes"/>
      <point x="96" y="253"/>
      <point x="116" y="231"/>
      <point x="116" y="201" type="curve" smooth="yes"/>
    </contour>
  </outline>
</glyph>
<glyph name="p" format="2">
  <advance width="556"/>
  <unicode hex="0070"/>
  <outline>
    <contour>
      <point x="288" y="426" type="curve" smooth="yes"/>
      <point x="158" y="426"/>
      <point x="64" y="328"/>
      <point x="64" y="198" type="curve" smooth="yes"/>
      <point x="64" y="-225" type="line"/>
      <point x="206" y="-225" type="line"/>
      <point x="206" y="16" type="line"/>
      <point x="228" y="-1"/>
      <point x="253" y="-10"/>
      <point x="298" y="-10" type="curve" smooth="yes"/>
      <point x="424" y="-10"/>
      <point x="512" y="78"/>
      <point x="512" y="208" type="curve" smooth="yes"/>
      <point x="512" y="328"/>
      <point x="408" y="426"/>
    </contour>
    <contour>
      <point x="285" y="280" type="curve" smooth="yes"/>
      <point x="331" y="280"/>
      <point x="362" y="245"/>
      <point x="362" y="203" type="curve" smooth="yes"/>
      <point x="362" y="162"/>
      <point x="333" y="127"/>
      <point x="285" y="127" type="curve" smooth="yes"/>
      <point x="244" y="127"/>
      <point x="211" y="158"/>
      <point x="211" y="203" type="curve" smooth="yes"/>
      <point x="211" y="245"/>
      <point x="244" y="280"/>
    </contour>
    <contour>
      <point x="166" y="361" type="move"/>
      <point x="140" y="393"/>
      <point x="100" y="416"/>
      <point x="52" y="416" type="curve" smooth="yes"/>
      <point x="38" y="416" type="line"/>
      <point x="38" y="282" type="line"/>
      <point x="42" y="282" type="line" smooth="yes"/>
      <point x="55" y="282"/>
      <point x="64" y="275"/>
      <point x="64" y="260" type="curve" smooth="yes"/>
      <point x="64" y="0" type="line"/>
      <point x="204" y="0" type="line"/>
      <point x="204" y="36" type="line"/>
    </contour>
  </outline>
</glyph>
<glyph name="q" format="2">
  <advance width="556"/>
  <unicode hex="0071"/>
  <outline>
    <contour>
      <point x="262" y="426" type="curve" smooth="yes"/>
      <point x="142" y="426"/>
      <point x="38" y="328"/>
      <point x="38" y="208" type="curve" smooth="yes"/>
      <point x="38" y="78"/>
      <point x="126" y="-10"/>
      <point x="252" y="-10" type="curve" smooth="yes"/>
      <point x="297" y="-10"/>
      <point x="322" y="-1"/>
      <point x="344" y="16" type="curve"/>
      <point x="344" y="-225" type="line"/>
      <point x="486" y="-225" type="line"/>
      <point x="486" y="198" type="line" smooth="yes"/>
      <point x="486" y="328"/>
      <point x="392" y="426"/>
    </contour>
    <contour>
      <point x="265" y="280" type="curve" smooth="yes"/>
      <point x="306" y="280"/>
      <point x="339" y="245"/>
      <point x="339" y="203" type="curve" smooth="yes"/>
      <point x="339" y="158"/>
      <point x="306" y="127"/>
      <point x="265" y="127" type="curve" smooth="yes"/>
      <point x="217" y="127"/>
      <point x="188" y="162"/>
      <point x="188" y="203" type="curve" smooth="yes"/>
      <point x="188" y="245"/>
      <point x="219" y="280"/>
    </contour>
    <contour>
      <point x="346" y="36" type="move"/>
      <point x="346" y="0" type="line"/>
      <point x="486" y="0" type="line"/>
      <point x="486" y="260" type="line" smooth="yes"/>
      <point x="486" y="275"/>
      <point x="495" y="282"/>
      <point x="508" y="282" type="curve" smooth="yes"/>
      <point x="512" y="282" type="line"/>
      <point x="512" y="416" type="line"/>
      <point x="498" y="416" type="line" smooth="yes"/>
      <point x="450" y="416"/>
      <point x="410" y="393"/>
      <point x="384" y="361" type="curve"/>
    </contour>
  </outline>
</glyph>
<glyph name="s" format="2">
  <advance width="456"/>
  <unicode hex="0073"/>
  <outline>
    <contour>
      <point x="56" y="0" type="line"/>
      <point x="197" y="0" type="line"/>
      <point x="264" y="0" type="line" smooth="yes"/>
      <point x="334" y="0"/>
      <point x="392" y="82"/>
      <point x="392" y="148" type="curve" smooth="yes"/>
      <point x="392" y="222"/>
      <point x="334" y="276"/>
      <point x="264" y="276" type="curve" smooth="yes"/>
      <point x="247" y="276" type="line"/>
      <point x="232" y="276" type="line" smooth="yes"/>
      <point x="212" y="276"/>
      <point x="198" y="290"/>
      <point x="198" y="310" type="curve" smooth="yes"/>
      <point x="198" y="328"/>
      <point x="214" y="342"/>
      <point x="232" y="342" type="curve" smooth="yes"/>
      <point x="247" y="342" type="line"/>
      <point x="340" y="342" type="line"/>
      <point x="340" y="446" type="line"/>
      <point x="197" y="446" type="line"/>
      <point x="172" y="446" type="line" smooth="yes"/>
      <point x="102" y="446"/>
      <point x="44" y="376"/>
      <point x="44" y="308" type="curve" smooth="yes"/>
      <point x="44" y="236"/>
      <point x="102" y="180"/>
      <point x="172" y="180" type="curve" smooth="yes"/>
      <point x="177" y="180" type="line"/>
      <point x="184" y="180" type="line" smooth="yes"/>
      <point x="204" y="180"/>
      <point x="218" y="166"/>
      <point x="218" y="148" type="curve" smooth="yes"/>
      <point x="218" y="128"/>
      <point x="204" y="114"/>
      <point x="184" y="114" type="curve" smooth="yes"/>
      <point x="177" y="114" type="line"/>
      <point x="56" y="114" type="line"/>
    </contour>
  </outline>
</glyph>
<glyph name="u" format="2">
  <advance width="610"/>
  <unicode hex="0075"/>
  <outline>
    <contour>
      <point x="339" y="416" type="line"/>
      <point x="339" y="267" type="line" smooth="yes"/>
      <point x="339" y="218"/>
      <point x="338" y="182"/>
      <point x="293" y="182" type="curve" smooth="yes"/>
      <point x="249" y="182"/>
      <point x="248" y="218"/>
      <point x="248" y="267" type="curve" smooth="yes"/>
      <point x="248" y="416" type="line"/>
      <point x="96" y="416" type="line"/>
      <point x="96" y="218" type="line" smooth="yes"/>
      <point x="96" y="88"/>
      <point x="163" y="0"/>
      <point x="293" y="0" type="curve" smooth="yes"/>
      <point x="348" y="0"/>
      <point x="397" y="21"/>
      <point x="433" y="57" type="curve"/>
      <point x="459" y="29"/>
      <point x="494" y="0"/>
      <point x="536" y="0" type="curve" smooth="yes"/>
      <point x="550" y="0" type="line"/>
      <point x="550" y="134" type="line"/>
      <point x="546" y="134" type="line" smooth="yes"/>
      <point x="514" y="134"/>
      <point x="494" y="166"/>
      <point x="494" y="196" type="curve" smooth="yes"/>
      <point x="494" y="416" type="line"/>
    </contour>
  </outline>
</glyph>
<glyph name="v" format="2">
  <advance width="492"/>
  <unicode hex="0076"/>
  <outline>
    <contour>
      <point x="180" y="0" type="line"/>
      <point x="312" y="0" type="line"/>
      <point x="480" y="416" type="line"/>
      <point x="338" y="416" type="line"/>
      <point x="246" y="184" type="line"/>
      <point x="164" y="416" type="line"/>
      <point x="12" y="416" type="line"/>
    </contour>
  </outline>
</glyph>
<glyph name="w" format="2">
  <advance width="718"/>
  <unicode hex="0077"/>
  <outline>
    <contour>
      <point x="308" y="406" type="line"/>
      <point x="417" y="406" type="line"/>
      <point x="512" y="208" type="line"/>
      <point x="565" y="416" type="line"/>
      <point x="706" y="416" type="line"/>
      <point x="572" y="0" type="line"/>
      <point x="453" y="0" type="line"/>
      <point x="360" y="229" type="line"/>
      <point x="269" y="0" type="line"/>
      <point x="147" y="0" type="line"/>
      <point x="12" y="416" type="line"/>
      <point x="158" y="416" type="line"/>
      <point x="213" y="208" type="line"/>
    </contour>
  </outline>
</glyph>
<glyph name="x" format="2">
  <advance width="440"/>
  <unicode hex="0078"/>
  <outline>
    <contour>
      <point x="-8" y="0" type="line"/>
      <point x="152" y="0" type="line"/>
      <point x="220" y="94" type="line"/>
      <point x="288" y="0" type="line"/>
      <point x="448" y="0" type="line"/>
      <point x="300" y="208" type="line"/>
      <point x="448" y="416" type="line"/>
      <point x="288" y="416" type="line"/>
      <point x="220" y="322" type="line"/>
      <point x="152" y="416" type="line"/>
      <point x="-8" y="416" type="line"/>
      <point x="140" y="208" type="line"/>
    </contour>
  </outline>
</glyph>
<glyph name="z" format="2">
  <advance width="502"/>
  <unicode hex="007A"/>
  <outline>
    <contour>
      <point x="38" y="0" type="line"/>
      <point x="464" y="0" type="line"/>
      <point x="464" y="114" type="line"/>
      <point x="222" y="114" type="line"/>
      <point x="454" y="306" type="line"/>
      <point x="454" y="426" type="line"/>
      <point x="44" y="426" type="line"/>
      <point x="44" y="302" type="line"/>
      <point x="270" y="302" type="line"/>
      <point x="38" y="112" type="line"/>
    </contour>
  </outline>
</glyph>
<glyph name="b.ss01" format="2">
  <advance width="556"/>
  <outline>
    <contour>
      <point x="288" y="-10" type="curve" smooth="yes"/>
      <point x="408" y="-10"/>
      <point x="512" y="88"/>
      <point x="512" y="208" type="curve" smooth="yes"/>
      <point x="512" y="338"/>
      <point x="424" y="426"/>
      <point x="298" y="426" type="curve" smooth="yes"/>
      <point x="253" y="426"/>
      <point x="228" y="417"/>
      <point x="206" y="400" type="curve"/>
      <point x="206" y="650" type="line"/>
      <point x="64" y="650" type="line"/>
      <point x="64" y="218" type="line" smooth="yes"/>
      <point x="64" y="88"/>
      <point x="158" y="-10"/>
    </contour>
    <contour>
      <point x="285" y="136" type="curve" smooth="yes"/>
      <point x="244" y="136"/>
      <point x="211" y="171"/>
      <point x="211" y="213" type="curve" smooth="yes"/>
      <point x="211" y="258"/>
      <point x="244" y="289"/>
      <point x="285" y="289" type="curve" smooth="yes"/>
      <point x="333" y="289"/>
      <point x="362" y="254"/>
      <point x="362" y="213" type="curve" smooth="yes"/>
      <point x="362" y="171"/>
      <point x="331" y="136"/>
    </contour>
    <contour>
      <point x="166" y="55" type="move"/>
    </contour>
  </outline>
</glyph>
<glyph name="p.ss01" format="2">
  <advance width="556"/>
  <outline>
    <contour>
      <point x="288" y="426" type="curve" smooth="yes"/>
      <point x="158" y="426"/>
      <point x="64" y="338"/>
      <point x="64" y="208" type="curve" smooth="yes"/>
      <point x="64" y="-225" type="line"/>
      <point x="206" y="-225" type="line"/>
      <point x="206" y="16" type="line"/>
      <point x="228" y="-1"/>
      <point x="253" y="-10"/>
      <point x="298" y="-10" type="curve" smooth="yes"/>
      <point x="424" y="-10"/>
      <point x="512" y="78"/>
      <point x="512" y="208" type="curve" smooth="yes"/>
      <point x="512" y="328"/>
      <point x="408" y="426"/>
    </contour>
    <contour>
      <point x="285" y="280" type="curve" smooth="yes"/>
      <point x="331" y="280"/>
      <point x="362" y="245"/>
      <point x="362" y="203" type="curve" smooth="yes"/>
      <point x="362" y="162"/>
      <point x="333" y="127"/>
      <point x="285" y="127" type="curve" smooth="yes"/>
      <point x="244" y="127"/>
      <point x="211" y="158"/>
      <point x="211" y="203" type="curve" smooth="yes"/>
      <point x="211" y="245"/>
      <point x="244" y="280"/>
    </contour>
  </outline>
</glyph>
<glyph name="q.ss01" format="2">
  <advance width="556"/>
  <outline>
    <contour>
      <point x="268" y="426" type="curve" smooth="yes"/>
      <point x="148" y="426"/>
      <point x="44" y="328"/>
      <point x="44" y="208" type="curve" smooth="yes"/>
      <point x="44" y="78"/>
      <point x="132" y="-10"/>
      <point x="258" y="-10" type="curve" smooth="yes"/>
      <point x="303" y="-10"/>
      <point x="328" y="-1"/>
      <point x="350" y="16" type="curve"/>
      <point x="350" y="-225" type="line"/>
      <point x="492" y="-225" type="line"/>
      <point x="492" y="208" type="line" smooth="yes"/>
      <point x="492" y="338"/>
      <point x="398" y="426"/>
    </contour>
    <contour>
      <point x="271" y="280" type="curve" smooth="yes"/>
      <point x="312" y="280"/>
      <point x="345" y="245"/>
      <point x="345" y="203" type="curve" smooth="yes"/>
      <point x="345" y="158"/>
      <point x="312" y="127"/>
      <point x="271" y="127" type="curve" smooth="yes"/>
      <point x="223" y="127"/>
      <point x="194" y="162"/>
      <point x="194" y="203" type="curve" smooth="yes"/>
      <point x="194" y="245"/>
      <point x="225" y="280"/>
    </contour>
  </outline>
</glyph>
